# xmcd
#
# Track frame offsets: 
#        150
#        5188
#        25806
#        44071
#        59088
#        77038
#        95765
#        113478
#        134195
#        151920
#        165037
#        196193
#        219758
#        241903
#        258201
#
# Disc length: 3744 seconds
#
# Revision: 0
# Processed by: cddbd v1.5.2PL0 Copyright (c) Steve Scherf et al.
# Submitted via: ExactAudioCopy v0.99pb3
#
DISCID=c50e9e0f
DTITLE=Anointed Pace Sisters - Return (2006)
DYEAR=2006
DGENRE=
TTITLE0=Intro
TTITLE1=High Praise
TTITLE2=Reign Forever
TTITLE3=Reign Forever (Reprise)
TTITLE4=Strategically Ordered
TTITLE5=Contentment
TTITLE6=The Words U Said
TTITLE7=Hold On
TTITLE8=Rescue
TTITLE9=Rescue Reprise
TTITLE10=It's Already Done
TTITLE11=God's World
TTITLE12=He's Here
TTITLE13=Return
TTITLE14=High Praise (TP's Inspirational House Mix)
EXTD=
EXTT0=
EXTT1=
EXTT2=
EXTT3=
EXTT4=
EXTT5=
EXTT6=
EXTT7=
EXTT8=
EXTT9=
EXTT10=
EXTT11=
EXTT12=
EXTT13=
EXTT14=
PLAYORDER=
